<svg width="91" height="68" viewBox="0 0 91 68" fill="none" xmlns="http://www.w3.org/2000/svg">
<path d="M34.0479 29.2578C34.0479 31.1133 33.7223 32.7409 33.0713 34.1406C32.4202 35.5241 31.5088 36.6797 30.3369 37.6074C29.165 38.5352 27.7653 39.235 26.1377 39.707C24.5101 40.1628 22.7116 40.3906 20.7422 40.3906C19.5215 40.3906 18.3984 40.3337 17.373 40.2197C16.3477 40.1221 15.3955 39.9919 14.5166 39.8291C13.654 39.6663 12.8483 39.4954 12.0996 39.3164C11.3672 39.1211 10.6673 38.9339 10 38.7549V35.6055C10.6836 35.8659 11.3916 36.1182 12.124 36.3623C12.8564 36.6064 13.6784 36.8262 14.5898 37.0215C15.5013 37.2168 16.5186 37.3714 17.6416 37.4854C18.7809 37.5993 20.083 37.6562 21.5479 37.6562C22.8662 37.6562 24.0951 37.4772 25.2344 37.1191C26.39 36.7448 27.391 36.2077 28.2373 35.5078C29.0999 34.7917 29.7754 33.929 30.2637 32.9199C30.752 31.8945 30.9961 30.7227 30.9961 29.4043V6.45508H34.0479V29.2578ZM48.2812 22.251L73.2324 6.45508H77.4805L52.8955 22.5439L78.9941 40H73.7939L48.2812 22.9102V40H45.1807V6.45508H48.2812V22.251Z" fill="black"/>
<path d="M9.17188 46.1387C9.01953 46.0645 8.84375 45.9863 8.64453 45.9043C8.44531 45.8184 8.2168 45.7422 7.95898 45.6758C7.70508 45.6094 7.41797 45.5547 7.09766 45.5117C6.77734 45.4648 6.42188 45.4414 6.03125 45.4414C5.55859 45.4414 5.13672 45.4688 4.76562 45.5234C4.39844 45.5781 4.08594 45.6641 3.82812 45.7812C3.57422 45.8945 3.37891 46.0391 3.24219 46.2148C3.10938 46.3906 3.04297 46.5996 3.04297 46.8418C3.04297 47.0449 3.10547 47.2227 3.23047 47.375C3.35938 47.5273 3.53125 47.6621 3.74609 47.7793C3.96484 47.8965 4.21875 48.0039 4.50781 48.1016C4.80078 48.1953 5.10938 48.2852 5.43359 48.3711C5.76172 48.4531 6.09766 48.5371 6.44141 48.623C6.78906 48.709 7.125 48.8027 7.44922 48.9043C7.77734 49.002 8.08594 49.1133 8.375 49.2383C8.66797 49.3594 8.92188 49.502 9.13672 49.666C9.35547 49.8301 9.52734 50.0176 9.65234 50.2285C9.78125 50.4395 9.8457 50.6836 9.8457 50.9609C9.8457 51.2617 9.78906 51.5254 9.67578 51.752C9.5625 51.9746 9.4082 52.168 9.21289 52.332C9.02148 52.4922 8.79492 52.627 8.5332 52.7363C8.27539 52.8418 7.99805 52.9258 7.70117 52.9883C7.4082 53.0508 7.10352 53.0938 6.78711 53.1172C6.47461 53.1445 6.16602 53.1582 5.86133 53.1582C5.16211 53.1582 4.52734 53.1074 3.95703 53.0059C3.39062 52.9043 2.84961 52.7656 2.33398 52.5898V51.6934C2.86523 52.0098 3.42578 52.2266 4.01562 52.3438C4.60938 52.4609 5.23242 52.5195 5.88477 52.5195C6.3457 52.5195 6.77148 52.4922 7.16211 52.4375C7.55273 52.3828 7.89062 52.2969 8.17578 52.1797C8.46094 52.0586 8.68164 51.9023 8.83789 51.7109C8.99805 51.5195 9.07812 51.2852 9.07812 51.0078C9.07812 50.7852 9.01367 50.5898 8.88477 50.4219C8.75977 50.2539 8.58789 50.1074 8.36914 49.9824C8.1543 49.8535 7.90039 49.7402 7.60742 49.6426C7.31836 49.5449 7.01172 49.4551 6.6875 49.373C6.36328 49.2871 6.02734 49.2051 5.67969 49.127C5.33594 49.0449 5.00195 48.957 4.67773 48.8633C4.35352 48.7695 4.04492 48.6641 3.75195 48.5469C3.46289 48.4297 3.20898 48.293 2.99023 48.1367C2.77539 47.9766 2.60352 47.793 2.47461 47.5859C2.34961 47.3789 2.28711 47.1387 2.28711 46.8652C2.28711 46.5957 2.33789 46.3574 2.43945 46.1504C2.54102 45.9395 2.67969 45.7578 2.85547 45.6055C3.03516 45.4531 3.24414 45.3262 3.48242 45.2246C3.7207 45.1191 3.97461 45.0371 4.24414 44.9785C4.51758 44.916 4.80078 44.8711 5.09375 44.8438C5.38672 44.8164 5.67578 44.8027 5.96094 44.8027C6.27344 44.8027 6.56836 44.8164 6.8457 44.8438C7.12695 44.8711 7.39648 44.9082 7.6543 44.9551C7.91602 44.998 8.16992 45.0488 8.41602 45.1074C8.66602 45.166 8.91797 45.2285 9.17188 45.2949V46.1387ZM19.4844 53L18.377 50.8789H12.9102L11.8027 53H11L15.2129 44.9492H16.0742L20.2871 53H19.4844ZM15.6465 45.6582L13.2676 50.2051H18.0195L15.6465 45.6582ZM29.8555 50.7793C29.8555 51.0918 29.8145 51.3633 29.7324 51.5938C29.6504 51.8242 29.5352 52.0234 29.3867 52.1914C29.2422 52.3555 29.0664 52.4902 28.8594 52.5957C28.6562 52.6973 28.4316 52.7793 28.1855 52.8418C27.9395 52.9004 27.6758 52.9414 27.3945 52.9648C27.1133 52.9883 26.8223 53 26.5215 53H21.875V44.9492H26.416C26.6465 44.9492 26.877 44.959 27.1074 44.9785C27.3379 44.998 27.5586 45.0352 27.7695 45.0898C27.9844 45.1406 28.1816 45.2129 28.3613 45.3066C28.5449 45.4004 28.7031 45.5234 28.8359 45.6758C28.9727 45.8281 29.0781 46.0117 29.1523 46.2266C29.2305 46.4414 29.2695 46.6953 29.2695 46.9883C29.2695 47.25 29.2363 47.4766 29.1699 47.668C29.1074 47.8594 29.0098 48.0234 28.877 48.1602C28.748 48.2969 28.582 48.4102 28.3789 48.5C28.1758 48.5859 27.9375 48.6543 27.6641 48.7051C28.0547 48.7324 28.3887 48.7988 28.666 48.9043C28.9434 49.0098 29.1699 49.1504 29.3457 49.3262C29.5215 49.502 29.6504 49.7129 29.7324 49.959C29.8145 50.2012 29.8555 50.4746 29.8555 50.7793ZM28.584 47C28.584 46.8867 28.5762 46.7734 28.5605 46.6602C28.5449 46.5469 28.5098 46.4395 28.4551 46.3379C28.4004 46.2324 28.3203 46.1348 28.2148 46.0449C28.1133 45.9551 27.9727 45.8789 27.793 45.8164C27.6133 45.75 27.3906 45.6992 27.125 45.6641C26.8633 45.625 26.5469 45.6055 26.1758 45.6055H22.6074V48.418H26.1758C26.7031 48.418 27.125 48.3809 27.4414 48.3066C27.7578 48.2285 28 48.125 28.168 47.9961C28.3398 47.8672 28.4512 47.7168 28.502 47.5449C28.5566 47.373 28.584 47.1914 28.584 47ZM29.0879 50.7676C29.0879 50.4629 29.0352 50.2031 28.9297 49.9883C28.8242 49.7734 28.6621 49.5977 28.4434 49.4609C28.2246 49.3242 27.9434 49.2246 27.5996 49.1621C27.2559 49.0957 26.8477 49.0625 26.375 49.0625H22.6074V52.3379H26.4746C26.9629 52.3379 27.373 52.3105 27.7051 52.2559C28.041 52.1973 28.3105 52.1055 28.5137 51.9805C28.7207 51.8516 28.8672 51.6875 28.9531 51.4883C29.043 51.2891 29.0879 51.0488 29.0879 50.7676ZM41.5801 48.9805C41.5801 49.7031 41.4492 50.3281 41.1875 50.8555C40.9258 51.3789 40.5664 51.8125 40.1094 52.1562C39.6523 52.4961 39.1133 52.748 38.4922 52.9121C37.8711 53.0762 37.2012 53.1582 36.4824 53.1582C35.7598 53.1582 35.0859 53.0762 34.4609 52.9121C33.8359 52.748 33.293 52.4961 32.832 52.1562C32.3711 51.8125 32.0098 51.3789 31.748 50.8555C31.4863 50.3281 31.3555 49.7031 31.3555 48.9805C31.3555 48.5 31.416 48.0645 31.5371 47.6738C31.6582 47.2793 31.8281 46.9277 32.0469 46.6191C32.2656 46.3066 32.5293 46.0371 32.8379 45.8105C33.1504 45.584 33.4961 45.3965 33.875 45.248C34.2578 45.0957 34.668 44.9844 35.1055 44.9141C35.543 44.8398 36.002 44.8027 36.4824 44.8027C37.2012 44.8027 37.8711 44.8848 38.4922 45.0488C39.1133 45.2129 39.6523 45.4668 40.1094 45.8105C40.5664 46.1504 40.9258 46.584 41.1875 47.1113C41.4492 47.6348 41.5801 48.2578 41.5801 48.9805ZM40.8242 48.9805C40.8242 48.4102 40.7305 47.9062 40.543 47.4688C40.3594 47.0312 40.0859 46.6641 39.7227 46.3672C39.3594 46.0664 38.9062 45.8398 38.3633 45.6875C37.8242 45.5312 37.1973 45.4531 36.4824 45.4531C35.7676 45.4531 35.1367 45.5312 34.5898 45.6875C34.0469 45.8438 33.5918 46.0723 33.2246 46.373C32.8574 46.6699 32.5801 47.0391 32.3926 47.4805C32.2051 47.918 32.1113 48.418 32.1113 48.9805C32.1113 49.5508 32.2051 50.0547 32.3926 50.4922C32.5801 50.9297 32.8574 51.2988 33.2246 51.5996C33.5918 51.8965 34.0469 52.123 34.5898 52.2793C35.1367 52.4316 35.7676 52.5078 36.4824 52.5078C37.1973 52.5078 37.8242 52.4316 38.3633 52.2793C38.9062 52.123 39.3594 51.8965 39.7227 51.5996C40.0859 51.2988 40.3594 50.9297 40.543 50.4922C40.7305 50.0547 40.8242 49.5508 40.8242 48.9805ZM51.459 53L44.4629 45.9102V53H43.7305V44.9492H44.5391L51.5352 52.0625V44.9492H52.2559V53H51.459ZM54.9688 53V44.9492H61.6777V45.6348H55.7656V48.4062H61.3789V49.0859H55.7656V52.3145H61.7656V53H54.9688ZM67.291 45.6172V53H66.5645V45.6172H62.9023V44.9492H70.9531V45.6172H67.291ZM72.5352 53V44.9492H79.2441V45.6348H73.332V48.4062H78.9453V49.0859H73.332V52.3145H79.332V53H72.5352ZM88.0977 46.1387C87.9453 46.0645 87.7695 45.9863 87.5703 45.9043C87.3711 45.8184 87.1426 45.7422 86.8848 45.6758C86.6309 45.6094 86.3438 45.5547 86.0234 45.5117C85.7031 45.4648 85.3477 45.4414 84.957 45.4414C84.4844 45.4414 84.0625 45.4688 83.6914 45.5234C83.3242 45.5781 83.0117 45.6641 82.7539 45.7812C82.5 45.8945 82.3047 46.0391 82.168 46.2148C82.0352 46.3906 81.9688 46.5996 81.9688 46.8418C81.9688 47.0449 82.0312 47.2227 82.1562 47.375C82.2852 47.5273 82.457 47.6621 82.6719 47.7793C82.8906 47.8965 83.1445 48.0039 83.4336 48.1016C83.7266 48.1953 84.0352 48.2852 84.3594 48.3711C84.6875 48.4531 85.0234 48.5371 85.3672 48.623C85.7148 48.709 86.0508 48.8027 86.375 48.9043C86.7031 49.002 87.0117 49.1133 87.3008 49.2383C87.5938 49.3594 87.8477 49.502 88.0625 49.666C88.2812 49.8301 88.4531 50.0176 88.5781 50.2285C88.707 50.4395 88.7715 50.6836 88.7715 50.9609C88.7715 51.2617 88.7148 51.5254 88.6016 51.752C88.4883 51.9746 88.334 52.168 88.1387 52.332C87.9473 52.4922 87.7207 52.627 87.459 52.7363C87.2012 52.8418 86.9238 52.9258 86.627 52.9883C86.334 53.0508 86.0293 53.0938 85.7129 53.1172C85.4004 53.1445 85.0918 53.1582 84.7871 53.1582C84.0879 53.1582 83.4531 53.1074 82.8828 53.0059C82.3164 52.9043 81.7754 52.7656 81.2598 52.5898V51.6934C81.791 52.0098 82.3516 52.2266 82.9414 52.3438C83.5352 52.4609 84.1582 52.5195 84.8105 52.5195C85.2715 52.5195 85.6973 52.4922 86.0879 52.4375C86.4785 52.3828 86.8164 52.2969 87.1016 52.1797C87.3867 52.0586 87.6074 51.9023 87.7637 51.7109C87.9238 51.5195 88.0039 51.2852 88.0039 51.0078C88.0039 50.7852 87.9395 50.5898 87.8105 50.4219C87.6855 50.2539 87.5137 50.1074 87.2949 49.9824C87.0801 49.8535 86.8262 49.7402 86.5332 49.6426C86.2441 49.5449 85.9375 49.4551 85.6133 49.373C85.2891 49.2871 84.9531 49.2051 84.6055 49.127C84.2617 49.0449 83.9277 48.957 83.6035 48.8633C83.2793 48.7695 82.9707 48.6641 82.6777 48.5469C82.3887 48.4297 82.1348 48.293 81.916 48.1367C81.7012 47.9766 81.5293 47.793 81.4004 47.5859C81.2754 47.3789 81.2129 47.1387 81.2129 46.8652C81.2129 46.5957 81.2637 46.3574 81.3652 46.1504C81.4668 45.9395 81.6055 45.7578 81.7812 45.6055C81.9609 45.4531 82.1699 45.3262 82.4082 45.2246C82.6465 45.1191 82.9004 45.0371 83.1699 44.9785C83.4434 44.916 83.7266 44.8711 84.0195 44.8438C84.3125 44.8164 84.6016 44.8027 84.8867 44.8027C85.1992 44.8027 85.4941 44.8164 85.7715 44.8438C86.0527 44.8711 86.3223 44.9082 86.5801 44.9551C86.8418 44.998 87.0957 45.0488 87.3418 45.1074C87.5918 45.166 87.8438 45.2285 88.0977 45.2949V46.1387ZM9.01367 65L7.90625 62.8789H2.43945L1.33203 65H0.529297L4.74219 56.9492H5.60352L9.81641 65H9.01367ZM5.17578 57.6582L2.79688 62.2051H7.54883L5.17578 57.6582ZM12.1367 61.5547V65H11.4043V56.9492H15.4121C16.0254 56.9492 16.5508 56.998 16.9883 57.0957C17.4258 57.1895 17.7832 57.334 18.0605 57.5293C18.3418 57.7207 18.5469 57.9609 18.6758 58.25C18.8047 58.5391 18.8691 58.877 18.8691 59.2637C18.8691 59.8652 18.7109 60.3477 18.3945 60.7109C18.0781 61.0703 17.5684 61.3164 16.8652 61.4492L19.6133 65H18.6934L16.0977 61.5312C15.9883 61.5391 15.877 61.5449 15.7637 61.5488C15.6504 61.5527 15.5332 61.5547 15.4121 61.5547H12.1367ZM18.1133 59.2637C18.1133 58.9199 18.0527 58.6426 17.9316 58.4316C17.8105 58.2168 17.6133 58.0508 17.3398 57.9336C17.0664 57.8164 16.707 57.7383 16.2617 57.6992C15.8203 57.6562 15.2773 57.6348 14.6328 57.6348H12.1367V60.8691H14.6094C15.2539 60.8691 15.7988 60.8516 16.2441 60.8164C16.6895 60.7773 17.0508 60.7012 17.3281 60.5879C17.6055 60.4707 17.8047 60.3086 17.9258 60.1016C18.0508 59.8906 18.1133 59.6113 18.1133 59.2637ZM24.6641 57.6172V65H23.9375V57.6172H20.2754V56.9492H28.3262V57.6172H24.6641ZM29.9082 65V56.9492H36.6172V57.6348H30.7051V60.4062H36.3184V61.0859H30.7051V64.3145H36.7051V65H29.9082ZM45.4707 58.1387C45.3184 58.0645 45.1426 57.9863 44.9434 57.9043C44.7441 57.8184 44.5156 57.7422 44.2578 57.6758C44.0039 57.6094 43.7168 57.5547 43.3965 57.5117C43.0762 57.4648 42.7207 57.4414 42.3301 57.4414C41.8574 57.4414 41.4355 57.4688 41.0645 57.5234C40.6973 57.5781 40.3848 57.6641 40.127 57.7812C39.873 57.8945 39.6777 58.0391 39.541 58.2148C39.4082 58.3906 39.3418 58.5996 39.3418 58.8418C39.3418 59.0449 39.4043 59.2227 39.5293 59.375C39.6582 59.5273 39.8301 59.6621 40.0449 59.7793C40.2637 59.8965 40.5176 60.0039 40.8066 60.1016C41.0996 60.1953 41.4082 60.2852 41.7324 60.3711C42.0605 60.4531 42.3965 60.5371 42.7402 60.623C43.0879 60.709 43.4238 60.8027 43.748 60.9043C44.0762 61.002 44.3848 61.1133 44.6738 61.2383C44.9668 61.3594 45.2207 61.502 45.4355 61.666C45.6543 61.8301 45.8262 62.0176 45.9512 62.2285C46.0801 62.4395 46.1445 62.6836 46.1445 62.9609C46.1445 63.2617 46.0879 63.5254 45.9746 63.752C45.8613 63.9746 45.707 64.168 45.5117 64.332C45.3203 64.4922 45.0938 64.627 44.832 64.7363C44.5742 64.8418 44.2969 64.9258 44 64.9883C43.707 65.0508 43.4023 65.0938 43.0859 65.1172C42.7734 65.1445 42.4648 65.1582 42.1602 65.1582C41.4609 65.1582 40.8262 65.1074 40.2559 65.0059C39.6895 64.9043 39.1484 64.7656 38.6328 64.5898V63.6934C39.1641 64.0098 39.7246 64.2266 40.3145 64.3438C40.9082 64.4609 41.5312 64.5195 42.1836 64.5195C42.6445 64.5195 43.0703 64.4922 43.4609 64.4375C43.8516 64.3828 44.1895 64.2969 44.4746 64.1797C44.7598 64.0586 44.9805 63.9023 45.1367 63.7109C45.2969 63.5195 45.377 63.2852 45.377 63.0078C45.377 62.7852 45.3125 62.5898 45.1836 62.4219C45.0586 62.2539 44.8867 62.1074 44.668 61.9824C44.4531 61.8535 44.1992 61.7402 43.9062 61.6426C43.6172 61.5449 43.3105 61.4551 42.9863 61.373C42.6621 61.2871 42.3262 61.2051 41.9785 61.127C41.6348 61.0449 41.3008 60.957 40.9766 60.8633C40.6523 60.7695 40.3438 60.6641 40.0508 60.5469C39.7617 60.4297 39.5078 60.293 39.2891 60.1367C39.0742 59.9766 38.9023 59.793 38.7734 59.5859C38.6484 59.3789 38.5859 59.1387 38.5859 58.8652C38.5859 58.5957 38.6367 58.3574 38.7383 58.1504C38.8398 57.9395 38.9785 57.7578 39.1543 57.6055C39.334 57.4531 39.543 57.3262 39.7812 57.2246C40.0195 57.1191 40.2734 57.0371 40.543 56.9785C40.8164 56.916 41.0996 56.8711 41.3926 56.8438C41.6855 56.8164 41.9746 56.8027 42.2598 56.8027C42.5723 56.8027 42.8672 56.8164 43.1445 56.8438C43.4258 56.8711 43.6953 56.9082 43.9531 56.9551C44.2148 56.998 44.4688 57.0488 44.7148 57.1074C44.9648 57.166 45.2168 57.2285 45.4707 57.2949V58.1387ZM55.7832 65L54.6758 62.8789H49.209L48.1016 65H47.2988L51.5117 56.9492H52.373L56.5859 65H55.7832ZM51.9453 57.6582L49.5664 62.2051H54.3184L51.9453 57.6582ZM65.9023 65L58.9062 57.9102V65H58.1738V56.9492H58.9824L65.9785 64.0625V56.9492H66.6992V65H65.9023ZM76.7832 65L75.6758 62.8789H70.209L69.1016 65H68.2988L72.5117 56.9492H73.373L77.5859 65H76.7832ZM72.9453 57.6582L70.5664 62.2051H75.3184L72.9453 57.6582ZM79.1738 65V56.9492H79.9062V65H79.1738ZM89.123 58.1387C88.9707 58.0645 88.7949 57.9863 88.5957 57.9043C88.3965 57.8184 88.168 57.7422 87.9102 57.6758C87.6562 57.6094 87.3691 57.5547 87.0488 57.5117C86.7285 57.4648 86.373 57.4414 85.9824 57.4414C85.5098 57.4414 85.0879 57.4688 84.7168 57.5234C84.3496 57.5781 84.0371 57.6641 83.7793 57.7812C83.5254 57.8945 83.3301 58.0391 83.1934 58.2148C83.0605 58.3906 82.9941 58.5996 82.9941 58.8418C82.9941 59.0449 83.0566 59.2227 83.1816 59.375C83.3105 59.5273 83.4824 59.6621 83.6973 59.7793C83.916 59.8965 84.1699 60.0039 84.459 60.1016C84.752 60.1953 85.0605 60.2852 85.3848 60.3711C85.7129 60.4531 86.0488 60.5371 86.3926 60.623C86.7402 60.709 87.0762 60.8027 87.4004 60.9043C87.7285 61.002 88.0371 61.1133 88.3262 61.2383C88.6191 61.3594 88.873 61.502 89.0879 61.666C89.3066 61.8301 89.4785 62.0176 89.6035 62.2285C89.7324 62.4395 89.7969 62.6836 89.7969 62.9609C89.7969 63.2617 89.7402 63.5254 89.627 63.752C89.5137 63.9746 89.3594 64.168 89.1641 64.332C88.9727 64.4922 88.7461 64.627 88.4844 64.7363C88.2266 64.8418 87.9492 64.9258 87.6523 64.9883C87.3594 65.0508 87.0547 65.0938 86.7383 65.1172C86.4258 65.1445 86.1172 65.1582 85.8125 65.1582C85.1133 65.1582 84.4785 65.1074 83.9082 65.0059C83.3418 64.9043 82.8008 64.7656 82.2852 64.5898V63.6934C82.8164 64.0098 83.377 64.2266 83.9668 64.3438C84.5605 64.4609 85.1836 64.5195 85.8359 64.5195C86.2969 64.5195 86.7227 64.4922 87.1133 64.4375C87.5039 64.3828 87.8418 64.2969 88.127 64.1797C88.4121 64.0586 88.6328 63.9023 88.7891 63.7109C88.9492 63.5195 89.0293 63.2852 89.0293 63.0078C89.0293 62.7852 88.9648 62.5898 88.8359 62.4219C88.7109 62.2539 88.5391 62.1074 88.3203 61.9824C88.1055 61.8535 87.8516 61.7402 87.5586 61.6426C87.2695 61.5449 86.9629 61.4551 86.6387 61.373C86.3145 61.2871 85.9785 61.2051 85.6309 61.127C85.2871 61.0449 84.9531 60.957 84.6289 60.8633C84.3047 60.7695 83.9961 60.6641 83.7031 60.5469C83.4141 60.4297 83.1602 60.293 82.9414 60.1367C82.7266 59.9766 82.5547 59.793 82.4258 59.5859C82.3008 59.3789 82.2383 59.1387 82.2383 58.8652C82.2383 58.5957 82.2891 58.3574 82.3906 58.1504C82.4922 57.9395 82.6309 57.7578 82.8066 57.6055C82.9863 57.4531 83.1953 57.3262 83.4336 57.2246C83.6719 57.1191 83.9258 57.0371 84.1953 56.9785C84.4688 56.916 84.752 56.8711 85.0449 56.8438C85.3379 56.8164 85.627 56.8027 85.9121 56.8027C86.2246 56.8027 86.5195 56.8164 86.7969 56.8438C87.0781 56.8711 87.3477 56.9082 87.6055 56.9551C87.8672 56.998 88.1211 57.0488 88.3672 57.1074C88.6172 57.166 88.8691 57.2285 89.123 57.2949V58.1387Z" fill="black"/>
</svg>
